<svg xmlns="http://www.w3.org/2000/svg" version="1.1" xmlns:xlink="http://www.w3.org/1999/xlink" xmlns:svgjs="http://svgjs.dev/svgjs" width="2000" height="1500" viewBox="0 0 2000 1500"><rect width="2000" height="1500" fill="#edffde"></rect><g transform="matrix(0.49407114624505927,0,0,0.49407114624505927,504.7823022988328,248.3870967741936)"><svg viewBox="0 0 245 248" data-background-color="#edffde" preserveAspectRatio="xMidYMid meet" height="2024" width="2000" xmlns="http://www.w3.org/2000/svg" xmlns:xlink="http://www.w3.org/1999/xlink"><g id="tight-bounds" transform="matrix(1,0,0,1,0.2842759680274014,0.4000000000000057)"><svg viewBox="0 0 244.43135999999998 247.2" height="247.2" width="244.43135999999998"><g><svg></svg></g><g><svg viewBox="0 0 244.43135999999998 247.2" height="247.2" width="244.43135999999998"><g transform="matrix(1,0,0,1,0,72.41627986086957)"><svg viewBox="0 0 244.43135999999998 102.36744027826086" height="102.36744027826086" width="244.43135999999998"><g><svg viewBox="0 0 244.43135999999998 102.36744027826086" height="102.36744027826086" width="244.43135999999998"><g><svg viewBox="0 0 244.43135999999998 102.36744027826086" height="102.36744027826086" width="244.43135999999998"><g id="textblocktransform"><svg viewBox="0 0 244.43135999999998 102.36744027826086" height="102.36744027826086" width="244.43135999999998" id="textblock"><g><svg viewBox="0 0 244.43135999999998 102.36744027826086" height="102.36744027826086" width="244.43135999999998"><path d="M243.859 21.956C242.71 11.33 239.435 8.376 239.435 8.376 229.38-2.568 216.832-0.209 205.559 1.363 185.656 1.427 165.834 3.765 145.977 5.018 104.298 5.21 62.263 2.065 20.791 9.821 16.896 12.201-4.041 10.289 0.693 23.316 1.934 28.735 6.462 34.749 6.324 39.722 6.944 40.593 7.806 38.596 8.174 39.85 9.461 43.229 11.564 41.635 13.287 43.632 10.886 48.966 12.609 53.408 14.253 58.062 11.357 59.273 7.645 58.7 5.979 62.716 5.807 65.628 4.876 65.075 3.853 64.947 3.106 64.862 1.601 65.181 1.854 66.095 2.715 69.219-0.985 71.025 1.336 74.086-0.261 77.401 2.44 80.27 2.072 83.861 2.026 84.584 2.279 85.2 2.681 85.37 4.462 86.284 1.865 88.069 2.141 90.003 20.412 103.221 40.234 94.083 58.954 100.161 63.814 95.911 60.16 101.67 62.102 100.777 63.619 99.736 64.722 104.05 66.434 101.606 66.699 100.905 66.296 99.247 67.239 99.566 67.733 99.736 68.169 99.694 68.238 98.716 68.342 97.25 67.434 98.163 67.193 97.398 69.801 93.531 69.158 102.732 71.605 102.35 71.49 101.224 70.778 99.609 72.237 99.821 73.685 98.206 73.731 96.867 75.018 100.501 75.064 101.287 75.294 101.84 75.662 102.222 79.684 98.27 83.683 103.625 87.9 101.84 90.485 99.885 92.968 102.902 95.588 102.159 96.507 101.564 97.438 100.501 98.323 102.286 109.159 102.669 120.707 101.075 130.981 102.35 158.433 99.97 187.77 103.328 216.717 100.182 223.543 98.971 230.633 97.25 237.286 95.868 237.286 95.868 242.675 92.086 242.675 75.084S243.825 60.208 243.997 46.671C244.169 33.134 244.974 32.582 243.825 21.956Z" opacity="1" fill="#bcec7e" data-fill-palette-color="tertiary"></path><g transform="matrix(1,0,0,1,34.46482176,16.210552)"><svg width="175.50171647999997" viewBox="2.3 -27.5 69 27.5" height="69.94633627826086" data-palette-color="#000000"><path d="M33.75-8.1L33.75-8.1Q33.75-5.85 32.68-4.03 31.6-2.2 29.75-1.1 27.9 0 25.65 0L25.65 0 2.3 0 2.3-5 25.65-5Q26.95-5 27.88-5.9 28.8-6.8 28.8-8.1L28.8-8.1Q28.8-9.4 27.88-10.33 26.95-11.25 25.65-11.25L25.65-11.25 10.35-11.25Q8.15-11.25 6.33-12.35 4.5-13.45 3.4-15.3 2.3-17.15 2.3-19.4L2.3-19.4Q2.3-21.6 3.4-23.45 4.5-25.3 6.33-26.4 8.15-27.5 10.35-27.5L10.35-27.5 31.9-27.5 31.9-22.55 10.35-22.55Q9.1-22.55 8.18-21.63 7.25-20.7 7.25-19.4L7.25-19.4Q7.25-18.1 8.18-17.18 9.1-16.25 10.35-16.25L10.35-16.25 25.65-16.25Q27.9-16.25 29.75-15.15 31.6-14.05 32.68-12.2 33.75-10.35 33.75-8.1ZM63.2-7.85L71.3 0 64.5 0 56.7-7.45 46.55-7.45 46.55-12.4 60.4-12.4Q62.5-12.4 63.97-13.93 65.45-15.45 65.45-17.5L65.45-17.5Q65.45-19.6 63.97-21.08 62.5-22.55 60.4-22.55L60.4-22.55 43.95-22.55 43.95 0 38.95 0 38.95-27.5 60.4-27.5Q63.2-27.5 65.45-26.15 67.7-24.8 69.05-22.53 70.4-20.25 70.4-17.5L70.4-17.5Q70.4-15.25 69.47-13.28 68.55-11.3 66.92-9.88 65.3-8.45 63.2-7.85L63.2-7.85Z" opacity="1" transform="matrix(1,0,0,1,0,0)" fill="#000000" class="wordmark-text-0" data-fill-palette-color="quaternary" id="text-0"></path></svg></g></svg></g></svg></g></svg></g><g></g></svg></g></svg></g><path d="M0 66.416L0 1 244.431 1 244.431 66.416 238.124 66.416 238.124 7.308 6.308 7.308 6.308 66.416 0 66.416M0 180.784L0 246.2 244.431 246.2 244.431 180.784 238.124 180.784 238.124 239.892 6.308 239.892 6.308 180.784 0 180.784" fill="#bcec7e" stroke="transparent" data-fill-palette-color="tertiary"></path></svg></g><defs></defs></svg><rect width="244.43135999999998" height="247.2" fill="none" stroke="none" visibility="hidden"></rect></g></svg></g></svg>